<svg height="100%" version="1.1" width="100%" xmlns="http://www.w3.org/2000/svg" viewBox="-35.000 -34.641 50.000 77.942" onresize="fixBounds()">
<desc></desc>
<defs></defs>
<g>
<line x1="-35" x2="-30" y1="-8.660" y2="-0.000" stroke="#000000" style="stroke-width: 2; stroke-linecap: round;"></line><line x1="-35" x2="-30" y1="-8.660" y2="-17.321" stroke="#000000" style="stroke-width: 2; stroke-linecap: round;"></line><line x1="-30" x2="-20" y1="-17.321" y2="-17.321" stroke="#000000" style="stroke-width: 2; stroke-linecap: round;"></line><line x1="-25" x2="-20" y1="-25.981" y2="-17.321" stroke="#000000" style="stroke-width: 2; stroke-linecap: round;"></line><line x1="-25" x2="-20" y1="-25.981" y2="-34.641" stroke="#000000" style="stroke-width: 2; stroke-linecap: round;"></line><line x1="-20" x2="-10" y1="-34.641" y2="-34.641" stroke="#000000" style="stroke-width: 2; stroke-linecap: round;"></line><line x1="-30" x2="-20" y1="-0.000" y2="-0.000" stroke="#000000" style="stroke-width: 2; stroke-linecap: round;"></line><line x1="-25" x2="-20" y1="-8.660" y2="-0.000" stroke="#000000" style="stroke-width: 2; stroke-linecap: round;"></line><line x1="-25" x2="-20" y1="-8.660" y2="-17.321" stroke="#000000" style="stroke-width: 2; stroke-linecap: round;"></line><line x1="-20" x2="-10" y1="-17.321" y2="-17.321" stroke="#000000" style="stroke-width: 2; stroke-linecap: round;"></line><line x1="-20" x2="-15" y1="-17.321" y2="-8.660" stroke="#000000" style="stroke-width: 2; stroke-linecap: round;"></line><line x1="-20" x2="-15" y1="-17.321" y2="-25.981" stroke="#000000" style="stroke-width: 2; stroke-linecap: round;"></line><line x1="-15" x2="-5" y1="-25.981" y2="-25.981" stroke="#000000" style="stroke-width: 2; stroke-linecap: round;"></line><line x1="-10" x2="-5" y1="-34.641" y2="-25.981" stroke="#000000" style="stroke-width: 2; stroke-linecap: round;"></line><line x1="-25" x2="-20" y1="8.660" y2="17.321" stroke="#000000" style="stroke-width: 2; stroke-linecap: round;"></line><line x1="-25" x2="-20" y1="8.660" y2="-0.000" stroke="#000000" style="stroke-width: 2; stroke-linecap: round;"></line><line x1="-20" x2="-10" y1="-0.000" y2="-0.000" stroke="#000000" style="stroke-width: 2; stroke-linecap: round;"></line><line x1="-20" x2="-15" y1="-0.000" y2="8.660" stroke="#000000" style="stroke-width: 2; stroke-linecap: round;"></line><line x1="-20" x2="-15" y1="-0.000" y2="-8.660" stroke="#000000" style="stroke-width: 2; stroke-linecap: round;"></line><line x1="-10" x2="-5" y1="-17.321" y2="-25.981" stroke="#000000" style="stroke-width: 2; stroke-linecap: round;"></line><line x1="-5" x2="0" y1="-25.981" y2="-34.641" stroke="#000000" style="stroke-width: 2; stroke-linecap: round;"></line><line x1="0" x2="10" y1="-34.641" y2="-34.641" stroke="#000000" style="stroke-width: 2; stroke-linecap: round;"></line><line x1="-20" x2="-10" y1="17.321" y2="17.321" stroke="#000000" style="stroke-width: 2; stroke-linecap: round;"></line><line x1="-15" x2="-5" y1="8.660" y2="8.660" stroke="#000000" style="stroke-width: 2; stroke-linecap: round;"></line><line x1="-15" x2="-10" y1="8.660" y2="17.321" stroke="#000000" style="stroke-width: 2; stroke-linecap: round;"></line><line x1="-15" x2="-10" y1="8.660" y2="-0.000" stroke="#000000" style="stroke-width: 2; stroke-linecap: round;"></line><line x1="-10" x2="-5" y1="-0.000" y2="8.660" stroke="#000000" style="stroke-width: 2; stroke-linecap: round;"></line><line x1="-10" x2="-5" y1="-0.000" y2="-8.660" stroke="#000000" style="stroke-width: 2; stroke-linecap: round;"></line><line x1="-5" x2="5" y1="-8.660" y2="-8.660" stroke="#000000" style="stroke-width: 2; stroke-linecap: round;"></line><line x1="-5" x2="0" y1="-8.660" y2="-0.000" stroke="#000000" style="stroke-width: 2; stroke-linecap: round;"></line><line x1="-5" x2="0" y1="-8.660" y2="-17.321" stroke="#000000" style="stroke-width: 2; stroke-linecap: round;"></line><line x1="0" x2="10" y1="-17.321" y2="-17.321" stroke="#000000" style="stroke-width: 2; stroke-linecap: round;"></line><line x1="10" x2="15" y1="-34.641" y2="-25.981" stroke="#000000" style="stroke-width: 2; stroke-linecap: round;"></line><line x1="-15" x2="-10" y1="25.981" y2="34.641" stroke="#000000" style="stroke-width: 2; stroke-linecap: round;"></line><line x1="-15" x2="-10" y1="25.981" y2="17.321" stroke="#000000" style="stroke-width: 2; stroke-linecap: round;"></line><line x1="-10" x2="0" y1="17.321" y2="17.321" stroke="#000000" style="stroke-width: 2; stroke-linecap: round;"></line><line x1="-10" x2="-5" y1="17.321" y2="25.981" stroke="#000000" style="stroke-width: 2; stroke-linecap: round;"></line><line x1="-10" x2="-5" y1="17.321" y2="8.660" stroke="#000000" style="stroke-width: 2; stroke-linecap: round;"></line><line x1="-5" x2="5" y1="8.660" y2="8.660" stroke="#000000" style="stroke-width: 2; stroke-linecap: round;"></line><line x1="-5" x2="0" y1="8.660" y2="17.321" stroke="#000000" style="stroke-width: 2; stroke-linecap: round;"></line><line x1="-5" x2="0" y1="8.660" y2="-0.000" stroke="#000000" style="stroke-width: 2; stroke-linecap: round;"></line><line x1="0" x2="10" y1="-0.000" y2="-0.000" stroke="#000000" style="stroke-width: 2; stroke-linecap: round;"></line><line x1="5" x2="10" y1="-8.660" y2="-17.321" stroke="#000000" style="stroke-width: 2; stroke-linecap: round;"></line><line x1="10" x2="15" y1="-17.321" y2="-8.660" stroke="#000000" style="stroke-width: 2; stroke-linecap: round;"></line><line x1="10" x2="15" y1="-17.321" y2="-25.981" stroke="#000000" style="stroke-width: 2; stroke-linecap: round;"></line><line x1="-10" x2="0" y1="34.641" y2="34.641" stroke="#000000" style="stroke-width: 2; stroke-linecap: round;"></line><line x1="-10" x2="-5" y1="34.641" y2="43.301" stroke="#000000" style="stroke-width: 2; stroke-linecap: round;"></line><line x1="-10" x2="-5" y1="34.641" y2="25.981" stroke="#000000" style="stroke-width: 2; stroke-linecap: round;"></line><line x1="0" x2="10" y1="17.321" y2="17.321" stroke="#000000" style="stroke-width: 2; stroke-linecap: round;"></line><line x1="0" x2="5" y1="17.321" y2="25.981" stroke="#000000" style="stroke-width: 2; stroke-linecap: round;"></line><line x1="5" x2="10" y1="8.660" y2="-0.000" stroke="#000000" style="stroke-width: 2; stroke-linecap: round;"></line><line x1="10" x2="15" y1="-0.000" y2="8.660" stroke="#000000" style="stroke-width: 2; stroke-linecap: round;"></line><line x1="10" x2="15" y1="-0.000" y2="-8.660" stroke="#000000" style="stroke-width: 2; stroke-linecap: round;"></line><line x1="0" x2="5" y1="34.641" y2="25.981" stroke="#000000" style="stroke-width: 2; stroke-linecap: round;"></line><line x1="10" x2="15" y1="17.321" y2="8.660" stroke="#000000" style="stroke-width: 2; stroke-linecap: round;"></line></g>
</svg>
